<svg xmlns="http://www.w3.org/2000/svg" viewBox="0 0 498 498"><defs><style>.cls-1{fill:#fff;}.cls-2{fill:#5f5f5f;}.cls-3{fill:#11bf4e;}</style></defs><title>icon</title><g id="Layer_2" data-name="Layer 2"><circle class="cls-1" cx="249" cy="249" r="249"/></g><g id="Layer_1" data-name="Layer 1"><path class="cls-2" d="M352.08,204.16a76.85,76.85,0,0,1-97.18-57.31,142.8,142.8,0,0,0-15.44-.86,134.76,134.76,0,0,0-46.15,7.91A53.91,53.91,0,0,1,118,218q-3.47,6.27-6.39,13a138.52,138.52,0,0,0,0,107.91,139.74,139.74,0,0,0,29.86,43.93,142.71,142.71,0,0,0,44.08,29.72,138.38,138.38,0,0,0,89.71,6.25,145.93,145.93,0,0,0,32.42-13.22,35.53,35.53,0,0,0,31.85,17.92,38.3,38.3,0,0,0,38.67-38.68V282.77a136.84,136.84,0,0,0-11.66-53.18A144.1,144.1,0,0,0,352.08,204.16ZM297.6,309.5a64.16,64.16,0,0,1-13.54,19.9A61.94,61.94,0,0,1,264,342.77a63.22,63.22,0,0,1-24.65,4.83,61.48,61.48,0,0,1-24.23-4.83A64,64,0,0,1,195,329.4a63,63,0,0,1-13.68-19.9,62.42,62.42,0,0,1,0-48.91A63.21,63.21,0,0,1,195,240.68a64.17,64.17,0,0,1,20.09-13.36,61.48,61.48,0,0,1,24.23-4.83A63.22,63.22,0,0,1,264,227.32a62.07,62.07,0,0,1,20.09,13.36,64.32,64.32,0,0,1,13.54,19.91,62.42,62.42,0,0,1,0,48.91Z" transform="translate(-1 -2)"/><circle class="cls-2" cx="140.63" cy="167.52" r="45.86"/><circle class="cls-3" cx="329.13" cy="129.71" r="65.24"/></g></svg>